# xmcd
#
# Track frame offsets:
#	150
#	10706
#	21765
#	30580
#	40745
#	53797
#	64681
#	74008
#	86984
#	95985
#	107985
#	119381
#	128557
#	140334
#	151041
#	160303
#	170332
#	179751
#	190187
#	199447
#	214033
#	227690
#	242819
#	258578
#	268312
#	286512
#	300032
#	315843
#	327665
#	340564
#
# Disc length: 4685 seconds
# Revision: 0
# Processed by: cddbd v1.5.2PL0 Copyright (c) Steve Scherf et al.
# Submitted via: dBpowerAMP V12.0
#
DISCID=ab124b1e
DTITLE=Various Artist - The World's Greatest Bluegrass Singers
DYEAR=2003
DGENRE=Bluegrass
TTITLE0=Lester Flatt - Roll in My Sweet Baby's Arms
TTITLE1=The Bluegrass Cardinals - Angels Rock Me to Sleep
TTITLE2=Carl Story and the Rambling Mountaineers - Shout and Shine
TTITLE3=Bill Monroe - I'm on My Way Back to the Old Home
TTITLE4=The Seldom Scene - Little Georgia Rose
TTITLE5=Jim and Jesse - Golden Rocket
TTITLE6=Grandpa Jones and the Brown's Ferry Four - I'll Meet You in the Morning
TTITLE7=Osborne Brothers - Fair and Tender Ladies
TTITLE8=Pinnacle Boys - Sitting on Top of the World
TTITLE9=The Bluegrass Cardinals - I Wonder Where You Are Are Tonight
TTITLE10=Mac Wiseman - Dark Hollow
TTITLE11=Grandpa Jones - Are You from Dixie?
TTITLE12=Jim and Jesse - Mandolin Man
TTITLE13=Osborne Brothers - Rocky Top
TTITLE14=The Stonemans - Blueridge Mountain Blues
TTITLE15=Jimmy Martin - Little Maggie
TTITLE16=Billy Jean - Palms of Victory
TTITLE17=Mac Wiseman - Train 45
TTITLE18=The Stoneman Family - I'm Thinking Tonight of My Blue Eyes
TTITLE19=The Bluegrass Cardinals - Darling Cory
TTITLE20=Jim and Jesse - Great Speckled Bird
TTITLE21=Benny Martin - Wabash Cannonball
TTITLE22=Bill Monroe - Body and Soul
TTITLE23=Osborne Brothers - Each Season Changes You
TTITLE24=Jimmy Martin - Freeborn Man
TTITLE25=Martha - Living Waters
TTITLE26=Osborne Brothers - Don't That Road Look Rough and Rocky
TTITLE27=Mac Wiseman - The Girl in the Blue Velvet Band
TTITLE28=Lester Flatt - Cabin on the Hill
TTITLE29=Carl Story - I Saw the Light
EXTD=
EXTT0=
EXTT1=
EXTT2=
EXTT3=
EXTT4=
EXTT5=
EXTT6=
EXTT7=
EXTT8=
EXTT9=
EXTT10=
EXTT11=
EXTT12=
EXTT13=
EXTT14=
EXTT15=
EXTT16=
EXTT17=
EXTT18=
EXTT19=
EXTT20=
EXTT21=
EXTT22=
EXTT23=
EXTT24=
EXTT25=
EXTT26=
EXTT27=
EXTT28=
EXTT29=
PLAYORDER=
